<svg width="55" height="54" viewBox="0 0 55 54" fill="none" xmlns="http://www.w3.org/2000/svg">
<g id="Frame" clip-path="url(#clip0_5610_233)">
<g id="Vector">
<path d="M54.6665 49.3606C54.49 49.9274 54.3886 50.5323 54.1244 51.0537C52.4609 54.3385 48.3835 54.9984 45.7604 52.4148C43.8306 50.5144 41.9135 48.6012 40.0185 46.6659C38.3867 44.9981 37.9587 43.0533 38.8084 40.8504C38.8613 40.714 38.8803 40.4718 38.801 40.3904C37.7135 39.2704 36.607 38.1695 35.4846 37.0442C30.0778 41.4543 23.9744 43.0459 17.1989 41.6203C12.0478 40.5363 7.869 37.7718 4.75445 33.5257C-1.56977 24.9013 -0.48649 12.8653 7.50228 5.4962C15.1634 -1.57147 27.1999 -1.84749 35.1718 4.81619C38.075 7.24329 40.2014 10.2341 41.5024 13.8044C42.8076 17.3895 43.1056 21.055 42.4419 24.8062C41.7814 28.5436 40.1813 31.8389 37.7326 34.7546C37.8224 34.8688 37.8879 34.9693 37.9703 35.0529C38.9501 36.0385 39.9245 37.0284 40.9221 37.995C41.0468 38.1155 41.3333 38.1991 41.4844 38.142C43.7281 37.2854 45.6917 37.72 47.3848 39.3962C49.2713 41.265 51.1324 43.1601 53.0221 45.0256C53.9479 45.9394 54.4319 47.054 54.6655 48.3051C54.6665 48.6562 54.6665 49.0084 54.6665 49.3606ZM36.0088 21.0434C36.068 20.9471 36.1113 20.871 36.1589 20.797C37.9016 18.0864 36.2054 14.6282 33.001 14.4199C31.793 14.3416 30.5766 14.3691 29.3644 14.3934C28.4058 14.4125 27.7812 15.0523 27.778 16.0062C27.7654 19.365 27.7654 22.7249 27.778 26.0837C27.7823 27.0503 28.446 27.6996 29.413 27.7145C30.5206 27.7314 31.6282 27.7451 32.7347 27.7113C34.3263 27.6616 35.5808 26.9795 36.347 25.5517C37.1745 24.0077 36.9928 22.5081 36.0088 21.0434ZM16.661 21.0159C16.6959 21.019 16.7318 21.0222 16.7667 21.0254C16.7667 21.6938 16.7593 22.3621 16.7677 23.0305C16.7941 24.9384 17.6238 26.3629 19.3295 27.2481C21.9949 28.6324 25.5132 26.7997 25.7563 23.8057C25.9042 21.992 25.8789 20.1497 25.7626 18.3318C25.6347 16.3235 23.8634 14.6219 21.9336 14.4315C19.6307 14.2041 17.5783 15.4214 17.0351 17.5259C16.7455 18.6469 16.7751 19.8494 16.661 21.0159ZM11.6356 17.5069C11.6504 17.7797 11.6673 17.9511 11.6673 18.1224C11.6695 19.8092 11.6695 21.4971 11.6684 23.1839C11.6673 24.0616 11.3672 24.5058 10.7595 24.5418C10.193 24.5746 9.87069 24.1981 9.7259 23.334C9.60119 22.5906 8.9787 22.0428 8.23151 22.0184C7.46951 21.9941 6.80898 22.4721 6.65574 23.2198C6.59444 23.5191 6.62403 23.8459 6.65785 24.1558C6.87239 26.1546 8.73351 27.7599 10.769 27.7145C12.8658 27.6679 14.7153 26.0266 14.7766 23.9929C14.858 21.3067 14.8305 18.6163 14.8147 15.928C14.8094 15.0185 14.1858 14.4188 13.2716 14.3945C12.1313 14.3649 10.9888 14.3829 9.84744 14.3924C9.65932 14.3945 9.46168 14.4357 9.28413 14.5024C8.63417 14.7488 8.22833 15.4098 8.29175 16.0824C8.36256 16.8301 8.87724 17.4255 9.62338 17.4942C10.2691 17.5545 10.9212 17.5069 11.6356 17.5069Z" fill="#2ADA66"/>
<path d="M54.6665 49.3606C54.49 49.9274 54.3886 50.5323 54.1244 51.0537C52.4609 54.3385 48.3835 54.9984 45.7604 52.4148C43.8306 50.5144 41.9135 48.6012 40.0185 46.6659C38.3867 44.9981 37.9587 43.0533 38.8084 40.8504C38.8613 40.714 38.8803 40.4718 38.801 40.3904C37.7135 39.2704 36.607 38.1695 35.4846 37.0442C30.0778 41.4543 23.9744 43.0459 17.1989 41.6203C12.0478 40.5363 7.869 37.7718 4.75445 33.5257C-1.56977 24.9013 -0.48649 12.8653 7.50228 5.4962C15.1634 -1.57147 27.1999 -1.84749 35.1718 4.81619C38.075 7.24329 40.2014 10.2341 41.5024 13.8044C42.8076 17.3895 43.1056 21.055 42.4419 24.8062C41.7814 28.5436 40.1813 31.8389 37.7326 34.7546C37.8224 34.8688 37.8879 34.9693 37.9703 35.0529C38.9501 36.0385 39.9245 37.0284 40.9221 37.995C41.0468 38.1155 41.3333 38.1991 41.4844 38.142C43.7281 37.2854 45.6917 37.72 47.3848 39.3962C49.2713 41.265 51.1324 43.1601 53.0221 45.0256C53.9479 45.9394 54.4319 47.054 54.6655 48.3051C54.6665 48.6562 54.6665 49.0084 54.6665 49.3606ZM36.0088 21.0434C36.068 20.9471 36.1113 20.871 36.1589 20.797C37.9016 18.0864 36.2054 14.6282 33.001 14.4199C31.793 14.3416 30.5766 14.3691 29.3644 14.3934C28.4058 14.4125 27.7812 15.0523 27.778 16.0062C27.7654 19.365 27.7654 22.7249 27.778 26.0837C27.7823 27.0503 28.446 27.6996 29.413 27.7145C30.5206 27.7314 31.6282 27.7451 32.7347 27.7113C34.3263 27.6616 35.5808 26.9795 36.347 25.5517C37.1745 24.0077 36.9928 22.5081 36.0088 21.0434ZM16.661 21.0159C16.6959 21.019 16.7318 21.0222 16.7667 21.0254C16.7667 21.6938 16.7593 22.3621 16.7677 23.0305C16.7941 24.9384 17.6238 26.3629 19.3295 27.2481C21.9949 28.6324 25.5132 26.7997 25.7563 23.8057C25.9042 21.992 25.8789 20.1497 25.7626 18.3318C25.6347 16.3235 23.8634 14.6219 21.9336 14.4315C19.6307 14.2041 17.5783 15.4214 17.0351 17.5259C16.7455 18.6469 16.7751 19.8494 16.661 21.0159ZM11.6356 17.5069C11.6504 17.7797 11.6673 17.9511 11.6673 18.1224C11.6695 19.8092 11.6695 21.4971 11.6684 23.1839C11.6673 24.0616 11.3672 24.5058 10.7595 24.5418C10.193 24.5746 9.87069 24.1981 9.7259 23.334C9.60119 22.5906 8.9787 22.0428 8.23151 22.0184C7.46951 21.9941 6.80898 22.4721 6.65574 23.2198C6.59444 23.5191 6.62403 23.8459 6.65785 24.1558C6.87239 26.1546 8.73351 27.7599 10.769 27.7145C12.8658 27.6679 14.7153 26.0266 14.7766 23.9929C14.858 21.3067 14.8305 18.6163 14.8147 15.928C14.8094 15.0185 14.1858 14.4188 13.2716 14.3945C12.1313 14.3649 10.9888 14.3829 9.84744 14.3924C9.65932 14.3945 9.46168 14.4357 9.28413 14.5024C8.63417 14.7488 8.22833 15.4098 8.29175 16.0824C8.36256 16.8301 8.87724 17.4255 9.62338 17.4942C10.2691 17.5545 10.9212 17.5069 11.6356 17.5069Z" fill="black" fill-opacity="0.5"/>
</g>
<path id="Vector_2" d="M36.009 21.0433C36.9929 22.508 37.1747 24.0076 36.3461 25.5517C35.5799 26.9794 34.3265 27.6615 32.7338 27.7112C31.6272 27.7461 30.5197 27.7313 29.4121 27.7144C28.4451 27.6996 27.7813 27.0502 27.7771 26.0836C27.7644 22.7248 27.7644 19.365 27.7771 16.0062C27.7803 15.0522 28.406 14.4124 29.3635 14.3934C30.5757 14.3691 31.7921 14.3416 33.0001 14.4198C36.2045 14.6271 37.9018 18.0853 36.158 20.7969C36.1115 20.8699 36.0671 20.946 36.009 21.0433ZM30.9561 19.5024C31.6769 19.4686 32.3427 19.4813 32.9938 19.3914C33.4651 19.3258 33.6945 18.9493 33.6828 18.4724C33.6723 18.0176 33.4281 17.6538 32.9885 17.6094C32.3227 17.5428 31.6442 17.5914 30.9551 17.5914C30.9561 18.2207 30.9561 18.8108 30.9561 19.5024ZM30.9625 24.5322C31.6125 24.5322 32.2413 24.5724 32.8617 24.5195C33.3457 24.4783 33.6511 24.1557 33.6828 23.646C33.7135 23.1627 33.4704 22.7618 33.0223 22.7047C32.3438 22.6191 31.6463 22.6825 30.9625 22.6825C30.9625 23.3202 30.9625 23.9093 30.9625 24.5322Z" fill="#AAF0C2"/>
<path id="Vector_3" d="M16.6611 21.0158C16.7753 19.8504 16.7467 18.6469 17.0353 17.5259C17.5785 15.4224 19.6309 14.2051 21.9338 14.4314C23.8636 14.6218 25.6349 16.3224 25.7628 18.3317C25.879 20.1497 25.9033 21.9919 25.7564 23.8056C25.5123 26.8006 21.9951 28.6323 19.3297 27.248C17.6239 26.3618 16.7943 24.9372 16.7679 23.0304C16.7584 22.3621 16.65 21.7988 16.65 21.1304C16.65 21.1304 16.65 21.0401 16.6611 21.0158ZM19.9321 21.0295C19.931 21.0295 19.931 21.0295 19.93 21.0295C19.93 21.6789 19.93 22.3282 19.93 22.9776C19.93 23.0125 19.93 23.0474 19.931 23.0833C19.9617 23.9251 20.5208 24.5343 21.2754 24.5491C22.0469 24.5639 22.681 23.9357 22.6915 23.0939C22.7085 21.7244 22.7085 20.3548 22.6905 18.9863C22.6799 18.1625 22.0765 17.5608 21.3134 17.5576C20.5419 17.5544 19.9575 18.1414 19.9363 18.9758C19.9184 19.66 19.9321 20.3442 19.9321 21.0295Z" fill="#AAF0C2"/>
<path id="Vector_4" d="M11.6358 17.5068C10.9214 17.5068 10.2682 17.5544 9.62565 17.4941C8.87951 17.4254 8.36483 16.83 8.29402 16.0823C8.22955 15.4097 8.63644 14.7487 9.2864 14.5023C9.4629 14.4357 9.66053 14.3934 9.84971 14.3923C10.9911 14.3817 12.1336 14.3638 13.2739 14.3944C14.1881 14.4188 14.8116 15.0173 14.8169 15.9279C14.8328 18.6162 14.8603 21.3066 14.7789 23.9928C14.7176 26.0265 12.8681 27.6678 10.7713 27.7144C8.73578 27.7599 6.87466 26.1545 6.66012 24.1557C6.62736 23.8458 6.59671 23.519 6.658 23.2198C6.81231 22.4721 7.47178 21.994 8.23378 22.0184C8.98097 22.0427 9.60452 22.5916 9.72817 23.334C9.87296 24.198 10.1953 24.5745 10.7618 24.5417C11.3684 24.5068 11.6696 24.0616 11.6707 23.1838C11.6728 21.497 11.6717 19.8091 11.6696 18.1223C11.6686 17.951 11.6506 17.7797 11.6358 17.5068Z" fill="#AAF0C2"/>
<g id="Vector_5">
<path d="M30.9561 19.5024C30.9561 18.8108 30.9561 18.2207 30.9561 17.5914C31.6452 17.5914 32.3237 17.5417 32.9895 17.6094C33.4292 17.6538 33.6733 18.0176 33.6839 18.4724C33.6945 18.9493 33.4651 19.3269 32.9948 19.3914C32.3427 19.4813 31.6769 19.4686 30.9561 19.5024Z" fill="#2ADA66"/>
<path d="M30.9561 19.5024C30.9561 18.8108 30.9561 18.2207 30.9561 17.5914C31.6452 17.5914 32.3237 17.5417 32.9895 17.6094C33.4292 17.6538 33.6733 18.0176 33.6839 18.4724C33.6945 18.9493 33.4651 19.3269 32.9948 19.3914C32.3427 19.4813 31.6769 19.4686 30.9561 19.5024Z" fill="black" fill-opacity="0.5"/>
</g>
<g id="Vector_6">
<path d="M30.9625 24.5322C30.9625 23.9093 30.9625 23.3202 30.9625 22.6825C31.6473 22.6825 32.3438 22.6191 33.0223 22.7047C33.4694 22.7618 33.7124 23.1627 33.6828 23.646C33.6501 24.1557 33.3457 24.4783 32.8617 24.5195C32.2402 24.5724 31.6125 24.5322 30.9625 24.5322Z" fill="#2ADA66"/>
<path d="M30.9625 24.5322C30.9625 23.9093 30.9625 23.3202 30.9625 22.6825C31.6473 22.6825 32.3438 22.6191 33.0223 22.7047C33.4694 22.7618 33.7124 23.1627 33.6828 23.646C33.6501 24.1557 33.3457 24.4783 32.8617 24.5195C32.2402 24.5724 31.6125 24.5322 30.9625 24.5322Z" fill="black" fill-opacity="0.5"/>
</g>
<g id="Vector_7">
<path d="M19.9321 21.0296C19.9321 20.3453 19.9173 19.66 19.9353 18.9758C19.9575 18.1414 20.5419 17.5544 21.3123 17.5576C22.0754 17.5608 22.6789 18.1625 22.6894 18.9863C22.7074 20.3559 22.7063 21.7254 22.6905 23.0939C22.6799 23.9357 22.0469 24.5639 21.2743 24.5491C20.5197 24.5343 19.9617 23.9241 19.93 23.0833C19.9289 23.0484 19.9289 23.0135 19.9289 22.9776C19.9289 22.3282 19.9289 21.6789 19.9289 21.0296C19.931 21.0296 19.9321 21.0296 19.9321 21.0296Z" fill="#2ADA66"/>
<path d="M19.9321 21.0296C19.9321 20.3453 19.9173 19.66 19.9353 18.9758C19.9575 18.1414 20.5419 17.5544 21.3123 17.5576C22.0754 17.5608 22.6789 18.1625 22.6894 18.9863C22.7074 20.3559 22.7063 21.7254 22.6905 23.0939C22.6799 23.9357 22.0469 24.5639 21.2743 24.5491C20.5197 24.5343 19.9617 23.9241 19.93 23.0833C19.9289 23.0484 19.9289 23.0135 19.9289 22.9776C19.9289 22.3282 19.9289 21.6789 19.9289 21.0296C19.931 21.0296 19.9321 21.0296 19.9321 21.0296Z" fill="black" fill-opacity="0.5"/>
</g>
</g>
<defs>
<clipPath id="clip0_5610_233">
<rect width="54" height="54" fill="white" transform="translate(0.666687)"/>
</clipPath>
</defs>
</svg>
