<svg width="55" height="54" viewBox="0 0 55 54" fill="none" xmlns="http://www.w3.org/2000/svg">
<g id="Network" clip-path="url(#clip0_2_232)">
<path id="Vector" d="M21.5929 28.2688C25.4699 28.2688 29.2807 28.2688 33.1864 28.2688C33.1048 28.9573 33.0861 29.649 32.9296 30.3088C32.6364 31.5467 32.2595 32.7647 31.9256 33.9927C31.843 34.2939 31.6843 34.3899 31.3669 34.337C28.6834 33.889 26 33.9045 23.3121 34.3193C23.1578 34.3436 22.8691 34.2189 22.8195 34.0931C22.091 32.2451 21.7461 30.3121 21.5929 28.2688Z" fill="#E5532A"/>
<path id="Vector_2" d="M33.1698 25.729C29.2961 25.729 25.472 25.729 21.5994 25.729C21.5719 24.3477 21.8672 23.0369 22.1978 21.7361C22.4557 20.7222 22.4756 20.7244 23.5258 20.88C26.2512 21.2838 28.971 21.2672 31.6853 20.784C32.0269 20.7233 32.2308 20.7685 32.3069 21.1613C32.5813 22.5724 32.881 23.9781 33.1665 25.387C33.1874 25.4874 33.1698 25.5955 33.1698 25.729Z" fill="#E5532A"/>
<path id="Vector_3" d="M50.55 35.2339C50.4564 35.5031 50.3495 35.8727 50.2018 36.2247C47.6043 42.4087 43.2578 46.898 37.1613 49.6828C36.7304 49.8803 36.2709 50.0237 35.8124 50.1506C35.116 50.3437 34.5385 50.0325 34.3269 49.3871C34.1462 48.8377 34.4591 48.275 35.1248 48.0212C37.1779 47.239 39.0921 46.2074 40.8411 44.8724C44.1417 42.3524 46.5573 39.1606 48.1057 35.3079C48.2005 35.0706 48.2809 34.8246 48.4044 34.6017C48.6578 34.1428 49.1868 33.9265 49.6728 34.0567C50.1819 34.1924 50.5412 34.6326 50.55 35.2339Z" fill="#E5532A"/>
<path id="Vector_4" d="M5.38071 33.9938C5.84357 34.0082 6.19512 34.3248 6.39459 34.861C7.22333 37.0941 8.38267 39.1429 9.87153 40.9998C12.3963 44.1497 15.536 46.4633 19.2995 47.9241C20.1988 48.2728 20.5635 48.8123 20.3244 49.4522C20.0533 50.1804 19.413 50.3944 18.4972 50.0281C11.6998 47.3063 6.94561 42.5444 4.27206 35.715C3.90508 34.7761 4.36463 33.9971 5.38071 33.9938Z" fill="#E5532A"/>
<path id="Vector_5" d="M5.24073 20.0062C4.37453 19.9962 3.91388 19.2228 4.25441 18.3192C5.60551 14.7214 7.68616 11.6089 10.4887 8.98308C12.8481 6.77207 15.5393 5.08953 18.5644 3.95093C18.8609 3.83949 19.2157 3.76998 19.521 3.81963C20.0158 3.90017 20.3244 4.27088 20.3795 4.77068C20.4379 5.30137 20.1778 5.68863 19.6918 5.90818C18.808 6.30868 17.8955 6.65622 17.0381 7.10747C11.9907 9.76312 8.47082 13.788 6.40118 19.097C6.14992 19.7392 5.79947 20.0128 5.24073 20.0062Z" fill="#E5532A"/>
<path id="Vector_6" d="M12.1274 28.2754C14.4803 28.2754 16.799 28.2754 19.1474 28.2754C19.2598 30.5537 19.7304 32.7328 20.5272 34.9029C20.2671 34.9868 20.0236 35.0453 19.7976 35.1424C18.5711 35.6675 17.3423 36.1883 16.1301 36.7444C15.8413 36.8768 15.6959 36.8712 15.4942 36.6175C13.7001 34.3425 12.5517 31.7994 12.2321 28.9021C12.2101 28.7046 12.1671 28.5093 12.1274 28.2754Z" fill="#E5532A"/>
<path id="Vector_7" d="M34.3799 34.8566C34.8284 32.7294 35.2891 30.5416 35.7651 28.2831C37.902 28.2831 40.1854 28.2831 42.6066 28.2831C42.46 29.0985 42.3642 29.9061 42.1658 30.6883C41.6126 32.8652 40.6119 34.8235 39.2002 36.5734C38.971 36.8569 38.8167 36.8768 38.4828 36.7179C37.0997 36.0581 35.6935 35.4469 34.3799 34.8566Z" fill="#E5532A"/>
<path id="Vector_8" d="M35.5679 3.78873C35.677 3.82073 35.8742 3.86266 36.0605 3.93547C42.8854 6.63525 47.6672 11.3905 50.3738 18.2243C50.6945 19.0342 50.4652 19.6509 49.7886 19.9014C49.1329 20.1452 48.5719 19.8352 48.2623 19.0573C45.7816 12.8281 41.445 8.46122 35.202 6.00527C34.5319 5.74158 34.23 5.27709 34.349 4.72323C34.4702 4.15724 34.9265 3.7788 35.5679 3.78873Z" fill="#E5532A"/>
<path id="Vector_9" d="M15.0588 17.9728C16.7571 18.7451 18.3991 19.4909 20.007 20.2224C19.6918 21.9866 19.3634 23.8258 19.0251 25.7191C16.81 25.7191 14.4924 25.7191 12.1428 25.7191C12.4029 22.813 13.3804 20.2136 15.0588 17.9728Z" fill="#E5532A"/>
<path id="Vector_10" d="M34.6653 20.2301C36.293 19.4898 37.9196 18.7495 39.6123 17.9794C41.2908 20.1981 42.3024 22.7821 42.5713 25.718C40.2339 25.718 37.9538 25.718 35.7056 25.718C35.353 23.8611 35.0025 22.0098 34.6653 20.2301Z" fill="#E5532A"/>
<path id="Vector_11" d="M27.3224 53.9989C25.6263 54.0276 23.8576 52.7191 23.8234 50.5114C23.7936 48.6346 25.4258 47.0492 27.3169 47.0624C29.2245 47.0757 30.8291 48.4625 30.8302 50.5323C30.8324 52.7731 28.9942 54.0375 27.3224 53.9989Z" fill="#E5532A"/>
<path id="Vector_12" d="M27.3312 0.00110498C29.0305 -0.035304 30.8434 1.26549 30.8302 3.4754C30.8181 5.57829 29.1859 6.92763 27.3069 6.93646C25.4158 6.94418 23.7848 5.34991 23.8223 3.47871C23.8675 1.26218 25.6418 -0.035304 27.3312 0.00110498Z" fill="#E5532A"/>
<path id="Vector_13" d="M7.2939 26.9779C7.30382 28.9065 5.78851 30.4533 3.86986 30.4732C1.95011 30.4931 0.341126 28.9473 0.333412 27.0761C0.324595 25.0935 1.86745 23.5257 3.82688 23.5257C5.75215 23.5268 7.28398 25.0516 7.2939 26.9779Z" fill="#E5532A"/>
<path id="Vector_14" d="M47.3707 27.0077C47.3674 25.0825 48.8915 23.54 50.8102 23.5268C52.7553 23.5136 54.3323 25.0648 54.3334 26.9912C54.3345 28.923 52.7663 30.4798 50.8267 30.4732C48.9048 30.4666 47.3751 28.9319 47.3707 27.0077Z" fill="#E5532A"/>
<path id="Vector_15" d="M31.2037 18.3854C28.5897 18.7936 26.0638 18.8025 23.4707 18.3821C24.4526 16.3189 25.7266 14.5548 27.3289 12.9517C28.9379 14.5316 30.1943 16.3123 31.2037 18.3854Z" fill="#E5532A"/>
<path id="Vector_16" d="M37.8524 16.1865C36.5508 16.7095 35.2526 17.2391 33.9445 17.7444C33.8431 17.7841 33.5963 17.6959 33.5533 17.6032C32.6177 15.5797 31.39 13.7493 29.8207 11.9576C32.9968 12.528 35.6031 13.8542 37.8248 15.9493C37.8336 16.0277 37.8435 16.1071 37.8524 16.1865Z" fill="#E5532A"/>
<path id="Vector_17" d="M16.7395 16.0961C19.1056 13.8729 21.6866 12.5445 24.596 12.005C23.376 13.8806 22.1406 15.7816 20.8038 17.836C19.5916 17.3174 18.2284 16.7338 16.7395 16.0961Z" fill="#E5532A"/>
<path id="Vector_18" d="M24.0162 36.7234C26.2677 36.3891 28.4145 36.3858 30.6439 36.7245C29.7435 38.353 28.6459 39.7431 27.3411 41.0483C26.022 39.7707 24.9442 38.3607 24.0162 36.7234Z" fill="#E5532A"/>
<path id="Vector_19" d="M33.2888 37.1768C34.4857 37.6314 35.7629 38.1158 37.1636 38.6476C34.9728 40.4581 32.6221 41.5393 30.007 42.0049C31.0748 40.4349 32.1383 38.8693 33.2888 37.1768Z" fill="#E5532A"/>
<path id="Vector_20" d="M21.3801 37.1802C22.5174 38.8539 23.5831 40.4217 24.6576 42.0027C22.0601 41.547 19.7315 40.4537 17.5131 38.6597C18.9171 38.1224 20.1987 37.6314 21.3801 37.1802Z" fill="#E5532A"/>
</g>
<defs>
<clipPath id="clip0_2_232">
<rect width="54" height="54" fill="white" transform="translate(0.333374)"/>
</clipPath>
</defs>
</svg>
